<svg id="Layer_1" data-name="Layer 1" xmlns="http://www.w3.org/2000/svg" viewBox="0 0 900 900"><defs><style>.cls-1{fill:#94a0b0;}.cls-2{fill:#044474;}.cls-3{fill:#0c74c1;}</style></defs><title>heroimg</title><path class="cls-1" d="M65.78,839h0v0A0,0,0,0,0,65.78,839Z"/><path class="cls-1" d="M67.32,839.4a3.43,3.43,0,0,1-1.54-.37A7.7,7.7,0,0,1,67.32,839.4Z"/><path class="cls-2" d="M737.38,840.8c-1.44.07-2.89.12-4.33.14-20.24.08-40.5,0-60.75.08H630.68l-5-6.94-2.32-3.22-1.12-1.55H719l2,1.24,6.59,4.13C730.87,836.72,734.15,838.76,737.38,840.8Z"/><path class="cls-2" d="M626.28,123.67l.3.32v2.39c.11.2.21.42.31.64.2.43.4.89.57,1.35.13.29.26.62.41,1l.15.28.34,1.06c0,.1.07.2.1.31a2.56,2.56,0,0,0,.12.32l.2.64c.13.4.26.83.37,1.27,0,.13.06.27.1.4l0,.14.05.26,0,.3.12.66L789,69.65v630.1c3.11,9.74,6.39,19.42,10,28.82.55,1.44,1.14,2.91,1.72,4.42V52.18ZM425.19,218.3c-.52-1.12-1.05-2.26-1.55-3.38-.64-1.4-1.26-2.83-1.85-4.18-.41-.94-.8-1.86-1.18-2.78L63.87,354.13V816.31c.61-.77,1.19-1.48,1.76-2.15,3.46-4.08,6.78-8.36,10-12.9V362L425.36,218.67C425.31,218.55,425.24,218.42,425.19,218.3ZM84.1,829.31l.19.07,0-.07Zm-8.86-3.1.35.12v-.55C75.47,825.93,75.35,826.06,75.24,826.21ZM65.78,839a3.43,3.43,0,0,0,1.54.37A7.7,7.7,0,0,0,65.78,839Zm0,0v0h0A0,0,0,0,1,65.75,839Zm381-630.35q-2.43-4.66-4.53-9.55l-7.63,3.13c.33.83.68,1.64,1,2.46.59,1.34,1.16,2.66,1.76,4,.49,1.09,1,2.18,1.49,3.25.17.33.32.68.49,1l7.94-3.25C447.08,209.37,446.9,209,446.71,208.66Z"/><path class="cls-2" d="M391.27,841h-33.1c.81-1.79,1.61-3.61,2.38-5.42.84-2,1.67-3.93,2.46-5.92l.15-.37h20c.08.12.18.25.27.37,2.21,3,4.4,6,6.59,8.92C390.29,839.05,390.79,840,391.27,841Z"/><path class="cls-3" d="M404.21,103.19c0-.7,0-1.42-.09-2.14l.81,1.2Z"/><path class="cls-3" d="M510.64,360.66c-12.62-6.36-23.18-14.73-30.83-26.74-7.53-11.85-10.42-25.2-13.72-39.46-3.5,5.65-6.46,10.54-9.49,15.39a40.73,40.73,0,0,1-16,15c-13.05,6.67-24.62,15.44-35.91,24.73s-22.93,18-34.57,26.71c-21.24,16-45.5,25.45-70.77,32.8-3.06.88-6.07,2-9.17,2.76C259,419.54,235.51,438.5,215,462.43c-17.39,20.35-29.35,43.7-39.46,68.06C173,536.67,173,544.21,173,551.11c.17,20.75.87,41.5,1.56,62.23.33,9.87-.64,19.34-4.25,28.75-14.18,37.06-27.73,74.38-42,111.43-10.64,27.68-24.95,53.2-44,75.79H84.1l.19.07c-1.74,2.07-3.53,4.11-5.34,6.12-1.1,1.2-2.23,2.43-3.35,3.61A4.86,4.86,0,0,1,72.06,841c-1.56,0-3-1-4.74-1.62a7.7,7.7,0,0,0-1.54-.37,0,0,0,0,1,0,0c1.29-1.7,2.47-3.36,3.65-5,.36-.5.73-1,1.08-1.51s.54-.74.81-1.09c1.07-1.47,2.12-2.89,3.19-4.28.25-.3.49-.62.74-.92l0,0,.35.12v-.55c.48-.64,1-1.26,1.52-1.86,17.9-21.14,30.64-45.33,40.68-70.82,13.35-34,25.49-68.42,38.15-102.68.62-1.67.89-3.63,1.91-5C166.38,634,164.51,621,164.44,608c-.1-23.53.37-47.06,1.07-70.59a45.44,45.44,0,0,1,3.62-15.64c16.53-39.85,40.75-74,75.62-100,13.39-10,29.12-14.68,44.76-19.5,19.85-6.12,39.78-12,58-22.34,19.16-10.89,36.71-24.11,53.62-38.13,11.91-9.91,24.53-18.51,38.68-24.73,7.13-3.15,12.3-8,15.35-15.15a7.65,7.65,0,0,1,1.14-2.11c8.48-9.4,9.57-21.58,11.78-33.11,1.35-7.12.3-13.94-5.78-20.08a106.39,106.39,0,0,1-18.2-24.23c-1.66-3.08-3.25-6.26-4.75-9.44l7.94-3.25a137.06,137.06,0,0,0,31,39.46c9.9,8.67,19.54,17.67,29.5,26.27,3.25,2.8,4.52,5.32,1,10l-34.3-27.09c-.72,5.72-1.44,11-2,16.21-.34,3.15-1,6.43-.5,9.47,3.14,19.08,8.13,37.57,20.7,52.88,5.17,6.28,11.26,11.83,17.27,17.36C512.41,356.56,512.54,358.28,510.64,360.66Z"/><path class="cls-3" d="M65.75,839a0,0,0,0,0,0,0h0Z"/><path class="cls-3" d="M65.78,839a7.7,7.7,0,0,1,1.54.37A3.43,3.43,0,0,1,65.78,839Z"/><path class="cls-3" d="M75.24,826.21c.11-.15.23-.28.35-.43v.55Z"/><path class="cls-3" d="M84.1,829.31h.24l0,.07Z"/><path class="cls-3" d="M447.26,209.7,439.32,213c-.17-.34-.32-.69-.49-1-.5-1.07-1-2.16-1.49-3.25-.6-1.32-1.17-2.64-1.76-4-.35-.82-.7-1.63-1-2.46-.1-.22-.19-.45-.29-.67-2.51-6-4.85-12-7.11-18-3.63-9.76-8-18.79-16.13-25.42a35.41,35.41,0,0,1-13.14-22l7.11-9.27v1c0,7.35,2.41,13.79,8.1,18.61,12.14,10.33,18.83,23.6,23.77,38.62,1.48,4.56,3.16,9,5,13.38l.3.7q2.1,4.89,4.53,9.55C446.9,209,447.08,209.37,447.26,209.7Z"/><path class="cls-3" d="M404.12,101.05c.05.72.09,1.44.09,2.14l.72-.94Z"/><path class="cls-3" d="M65.75,839v0h0A0,0,0,0,1,65.75,839Zm0,0a3.43,3.43,0,0,0,1.54.37A7.7,7.7,0,0,0,65.78,839Zm338.34-738c.05.72.09,1.44.09,2.14l.72-.94Z"/><path class="cls-3" d="M65.75,839v0h0A0,0,0,0,1,65.75,839Z"/><path class="cls-3" d="M764.84,836.6c.23,1.58-.08,2.25-.82,2.25a3.88,3.88,0,0,1-1.79-.71c-4-2.39-8.1-4.65-12.08-7.13-.44-.25-.87-.53-1.31-.8l-.87-.53-.58-.37c-2.18-1.37-4.35-2.75-6.55-4.1-13.9-8.72-27.86-17.35-41.41-26.61-20.72-14.14-36.5-32.85-50.15-54-16.65-25.79-34.71-50.7-53-75.37-6.21-8.35-15.06-14.72-22.66-22a5.6,5.6,0,0,0-4-1.82,8,8,0,0,0-3,.68c-5.15,2.15-10.54,3.74-15.63,6a7.32,7.32,0,0,0-3.83,4.48c-3.11,19-5.32,38-1.62,57.18,3.23,16.79,10.32,32.22,17.2,47.76,10.78,24.4,25.44,46.36,41,67.81.09.12.19.25.27.37.77,1.08,1.56,2.14,2.34,3.23-1.62,1.74-2.36,2.54-3.08,2.54s-1.2-.62-2.32-1.76q-2-2-3.82-4c-.11-.12-.21-.25-.33-.37-24.45-26.49-40.57-58-53.33-91.47-7.73-20.33-8.69-41.23-5.42-62.5.92-6.06,1.65-12.13,2.64-19.43-5.07,1.66-9.37,2.88-13.51,4.47-24.51,9.3-49.49,16.87-75.67,19.81-1,.12-2,.2-2.91.29-1.77-5.44-1.72-5.27,3.9-7.15,35.61-11.78,71.46-22.94,106.71-35.71,24.74-9,48.67-20.15,73-30.32,1.69-.7,3.45-1.27,5.17-1.93l1.16,1.54c-2,2.21-3.67,4.74-5.89,6.61C621.15,623,607.27,628,594.19,634.26c-5,2.39-10.09,4.58-15.05,6.82.15.64.14.91.24,1,20.92,14,34.67,34.52,48.9,54.47,12.51,17.54,24.31,35.59,36.21,53.57,13.43,20.24,32.13,34.7,51.91,48.12,11.93,8.09,23.76,16.34,35.57,24.59l8.45,5.89.86.6.53.37c1.11.78,2.21,1.55,3.32,2.31a42.38,42.38,0,0,1,3.73,3.38Z"/><path class="cls-3" d="M409.33,841h-1.26c-2-3.41-4-8.68-5.94-11.34-.08-.12-.18-.25-.27-.37-13.42-18-26.49-36.25-37.13-57.17-.65,2.53-1.19,4.26-1.55,6a281.5,281.5,0,0,1-16.32,51.17l-.15.37c-1.64,3.81-3.35,7.58-5.15,11.34-.32.67-.64,1.32-1,2-.92,1.92-1.58,4.38-4,4.38a5.61,5.61,0,0,1-2.06-.47c.77-2,1.57-3.93,2.36-5.89,1.56-3.8,3.13-7.56,4.67-11.34l.15-.37c2.24-5.56,4.4-11.16,6.22-16.84,4.87-15.17,8.67-30.67,12.81-46.06a12,12,0,0,0,.2-5.91c-4.3-16.5-6-33.35-6.43-50.35a25.09,25.09,0,0,0-.43-2.92c-.51,0-1-.1-1.36-.1a1.12,1.12,0,0,0-.53.12c-17,11-36,17-55,23-3.9,1.22-6,3.11-6.6,7.26-4.4,28.76-18.3,53-36.78,74.77-5,5.82-10.14,11.44-15.43,17-3.71,3.91-7.46,7.8-11.21,11.71q-3.24,3.39-6.46,6.8c-1.64-2.51-2.74-4.22-4.2-6.46.1-.12.2-.22.32-.34q5.4-5.78,10.78-11.71c18.47-20.47,36.08-42.66,46.79-69.65,3-7.53,5.22-15.36,8.15-24.13-7.23,2-13.26,3.78-19.32,5.39-4.25,1.1-8.58,1.86-12.81,3a12.82,12.82,0,0,1-3.38.52c-3,0-5.46-1.56-7.47-6.08,43.49-11.51,84.54-28.66,125.87-45,.37.39.76.8,1.13,1.21-.89,1.95-1.88,3.9-2.6,5.92A10.12,10.12,0,0,0,363,705c3.84,31.19,8.81,61.9,27.19,88.91,7.41,10.89,12.5,23.42,18.22,35.44.05.12.12.25.17.37l.4.87C410,832.52,409.71,837.66,409.33,841Z"/><path class="cls-3" d="M409.33,841c-.07.59-.15,1.14-.22,1.59a15.68,15.68,0,0,1-1-1.59Z"/><path class="cls-3" d="M836.13,828.27l-6.5,1.41a314.7,314.7,0,0,1-28.88-39.91q-6-9.72-11.33-19.87l-.38-.73q-7.56-14.34-13.94-29.41c-8.25-19.36-14.19-39.86-19.58-60.25-7.6-28.74-13.14-58-20.63-86.72-5.22-20-11.8-39.79-18.63-59.37-3.91-11.2-6.62-22.12-4-33.92a6.23,6.23,0,0,0,.17-1.77,4.52,4.52,0,0,0-.55-1.38c-4,6.08-8,12-11.9,17.89-.49-.15-1-.28-1.49-.42a48,48,0,0,1,1.07-5.74c4.62-14.42,9.16-28.88,14.09-43.2,7.92-23,13.19-46.52,14.39-70.74.34-6.59-3-13.39-4.8-20.05a15,15,0,0,0-2.41-4.13,211.7,211.7,0,0,1-27.18-53.73c-11.61-33.5-31-62.42-53.51-89.41a127,127,0,0,1-18.78-31.16,40.29,40.29,0,0,1-2.86-11.53c-.23-2.21,1-4.58,1.76-7.41,1.44,1.05,2.11,1.27,2.29,1.72,7.87,17.71,19.31,33,32,47.49a275.55,275.55,0,0,1,52.78,89.76,196.18,196.18,0,0,0,22.06,43.73c5.25,7.8,7.08,16.11,7.16,25.4.25,29-4.48,56.88-13.6,84.61-6.28,19.09-7.52,39.54,1.13,59.24,3,6.71,4.62,14,6.61,21.1,10.14,36.31,19.92,72.72,30.43,108.9,7.34,25.27,14.5,50.71,23.87,75.25,1.29,3.4,2.67,6.8,4.09,10.15.11.3.25.61.38.92l.12.28c.5,1.17,1,2.31,1.52,3.46s1,2.28,1.54,3.42c.69,1.54,1.41,3.08,2.14,4.6.32.7.66,1.39,1,2.11.58,1.2,1.17,2.41,1.76,3.61l.15.27a.09.09,0,0,1,0,0c1,2,2,4,3.08,6a571.92,571.92,0,0,0,30.36,50.86C832.93,822.45,834.47,825.44,836.13,828.27Z"/><path class="cls-3" d="M607.79,187.51c-.78,1.24-1.75,2.38-2.62,3.55l-1.36-.62c.67-2.14,1.19-4.35,2.06-6.41,5.62-13.42,5.17-26.89,2.47-40.33-.11-.62-.25-1.22-.38-1.84-.52-2.39-1.1-4.77-1.72-7.16a6.09,6.09,0,0,0-1.31-2.28,9.43,9.43,0,0,0-1.09-1.1,7.16,7.16,0,0,0-3.23-1.74,39.09,39.09,0,0,0-6.91-.72,16.36,16.36,0,0,0-5.94,1,36.86,36.86,0,0,1-13.84,2.83c-8.67,0-16.65-3.43-24.39-9.26-10.2-7.68-20.59-15.09-30.93-22.59a34.24,34.24,0,0,0-20.41-6.89,36.91,36.91,0,0,0-4.41.28,52.75,52.75,0,0,1-6.45.39c-15.74,0-29.21-7.13-41.87-16.07-4.45-3.13-8.76-4.77-12.79-4.77-5.27,0-10.11,2.8-14.26,8.71-4.48,6.34-8.35,13.1-13.48,19.79l-.72.94c0-.7,0-1.42-.09-2.14a20.41,20.41,0,0,1,.19-5.76,51.13,51.13,0,0,1,9.9-19.56,24.89,24.89,0,0,1,20.52-10c.67,0,1.32,0,2,0,3.34.22,6.69,2.18,9.82,3.73,7.83,3.9,15.4,8.35,23.36,12a40.42,40.42,0,0,0,17,3.66,48.21,48.21,0,0,0,6.41-.45,41.32,41.32,0,0,1,5.49-.38,36.79,36.79,0,0,1,22.24,7.48c14.94,11,29.75,22.1,44.91,33.38.93-.43,2.6-2,4.12-2h.2a26.05,26.05,0,0,0,2.63.14c5.94,0,11.46-1.94,17.22-3.4a16.42,16.42,0,0,1,4.08-.52c6.23,0,12.2,3.53,16.25,9.15.3.41.57.82.84,1.24.06.1.13.22.2.32v0a7.59,7.59,0,0,1,.39.66l.3.5c.1.2.2.37.3.58,0,0,0,0,0,.09a4.25,4.25,0,0,1,.27.52c.13.26.25.53.38.82s.17.38.26.6c.18.45.38.9.55,1.39a.35.35,0,0,0,0,.12.58.58,0,0,1,.05.11c0,.19.14.39.19.57s.13.4.2.6a.8.8,0,0,1,0,.15.7.7,0,0,1,0,.14c.12.65.24,1.32.35,2l.36,1.86c0,.11,0,.25.06.37C620.13,157.86,617,173.17,607.79,187.51Z"/></svg>