<?xml version="1.0" encoding="utf-8"?>
<!-- Generator: Adobe Illustrator 22.0.1, SVG Export Plug-In . SVG Version: 6.00 Build 0)  -->
<svg version="1.1" id="Layer_1" xmlns="http://www.w3.org/2000/svg" xmlns:xlink="http://www.w3.org/1999/xlink" x="0px" y="0px"
	 viewBox="0 0 2104 354" style="enable-background:new 0 0 2104 354;" xml:space="preserve">
<style type="text/css">
	.st0{fill:#FFFFFF;}
	.st1{fill:#0C74C1;}
	.st2{fill:#94A0B0;}
	.st3{fill:#044474;}
	.st4{fill:#29A4FF;}
	.st5{fill:#042742;}
</style>
<g>
	<path class="st1" d="M60.8,49.5h33v148.5c0,22,5.3,39,15.8,51c10.6,12,25.5,18,44.9,18c19.2,0,34.2-5.5,44.9-16.6
		c10.7-11.1,16-26.7,16-46.8V49.5h33v152c0,29.6-8.4,53.2-25.3,71c-16.9,17.7-39.4,26.6-67.4,26.6c-28.7,0-51.7-9-69-26.9
		c-17.3-18-25.9-44.5-25.9-79.5V49.5z"/>
	<path d="M492.1,57.5v37.4c-26.1-12.8-50-19.2-71.9-19.2c-28.1,0-51.7,9.1-71,27.2c-19.2,18.1-28.8,40.4-28.8,66.8
		c0,26.9,9.8,49.4,29.5,67.4c19.7,18,44.3,27,73.9,27c21.5,0,44.3-6.8,68.3-20.3v37.8c-21.9,11.6-45.6,17.5-71.1,17.5
		c-37.4,0-69.4-12.7-96-38c-26.6-25.3-39.8-55.9-39.8-91.7c0-35.1,13.1-65.2,39.2-90.2c26.1-25,57.6-37.5,94.4-37.5
		C442.3,41.6,466.8,46.9,492.1,57.5z"/>
	<path d="M518.3,192.4c0-28.1,10.6-52.1,31.8-72.2c21.2-20,46.6-30.1,76.3-30.1c29,0,54,10.1,75,30.3c21,20.2,31.5,44.2,31.5,71.9
		c0,29.4-10.4,54.2-31.1,74.5c-20.7,20.3-46.1,30.4-76.3,30.4c-29.7,0-55-10.2-75.9-30.7C528.7,246.3,518.3,221.5,518.3,192.4z
		 M704.6,193.7c0-21.5-7.7-39.5-23.2-54.2c-15.5-14.7-34.5-22-57.1-22c-21.5,0-39.9,7.5-55.2,22.4c-15.3,14.9-23,32.9-23,53.8
		c0,21.3,7.9,39.2,23.6,53.9s35,22,57.8,22c21,0,39.1-7.5,54.3-22.5C697,232.1,704.6,214.3,704.6,193.7z"/>
	<path d="M766,88.5l143.8,147.9V96.3h26.6v203.5L792.6,152.7v138.2H766V88.5z"/>
	<path d="M1094.9,118l-21.5,17.3c-5.7-5.9-10.8-10.3-15.5-13.2c-4.6-2.9-11.3-4.4-20-4.4c-9.5,0-17.3,2.2-23.2,6.5
		s-8.9,9.9-8.9,16.7c0,5.9,2.6,11.1,7.8,15.6c5.2,4.5,14,9.5,26.5,14.8c12.5,5.4,22.2,10.4,29.2,15c7,4.6,12.7,9.7,17.1,15.3
		c4.5,5.6,7.8,11.5,10,17.7c2.2,6.2,3.3,12.8,3.3,19.7c0,16.2-5.9,30-17.6,41.3c-11.8,11.4-26,17.1-42.7,17.1
		c-16.3,0-30.7-4.5-43.1-13.4c-12.5-8.9-22.1-22.3-28.8-40.1l26.6-7.5c9.7,21.9,24.5,32.8,44.4,32.8c9.7,0,17.7-2.9,24.1-8.7
		c6.4-5.8,9.6-13.1,9.6-21.9c0-5.3-1.7-10.6-5-15.9c-3.4-5.3-7.5-9.7-12.5-13.2c-5-3.5-12.9-7.4-23.8-11.9
		c-10.9-4.5-19.3-8.6-25.1-12.3s-11-8.1-15.2-13.3c-4.3-5.1-7.4-10.2-9.4-15.3c-2-5.1-3-10.5-3-16.3c0-13.9,5.6-25.8,16.8-35.6
		c11.2-9.8,24.8-14.7,40.8-14.7c10.6,0,21.3,2.3,32.2,6.9C1078.6,101.7,1087.7,108.6,1094.9,118z"/>
	<path d="M1131.5,96.6h26.6v119.6c0,17.7,4.2,31.4,12.8,41.1c8.5,9.7,20.5,14.5,36.1,14.5c15.5,0,27.5-4.5,36.1-13.4
		c8.6-8.9,12.9-21.5,12.9-37.6V96.6h26.6v122.3c0,23.8-6.8,42.9-20.4,57.1c-13.6,14.3-31.7,21.4-54.3,21.4
		c-23.1,0-41.6-7.2-55.5-21.7c-13.9-14.5-20.8-35.8-20.8-64V96.6z"/>
	<path d="M1325.2,96.3h26.3v168.3h63.4v26.3h-89.6V96.3z"/>
	<path d="M1420.4,96.3h119v26.6H1493v168h-26.3v-168h-46.3V96.3z"/>
	<path d="M1568.9,96.3h26.3v194.5h-26.3V96.3z"/>
	<path d="M1636.3,88.5l143.8,147.9V96.3h26.6v203.5l-143.8-147.2v138.2h-26.6V88.5z"/>
	<path d="M2034.4,127.5l-19.7,19.4c-19.9-19.4-42.8-29.2-68.9-29.2c-22.8,0-41.8,7.3-57,22c-15.2,14.6-22.8,32.9-22.8,54.9
		c0,19.2,7.4,36.5,22.1,51.9c14.7,15.4,35,23.1,60.8,23.1c38.8,0,63.2-16.8,73.1-50.5h-52.5v-26.6h82.9c0,13.3-0.9,23.9-2.7,31.9
		c-1.8,7.9-5.5,16.7-11.1,26.2c-5.6,9.6-13.1,18.1-22.4,25.7c-9.3,7.6-19.3,13-29.9,16.2c-10.6,3.3-23.3,4.9-38.1,4.9
		c-33.6,0-60.4-10.6-80.4-31.7c-20-21.1-30-45.2-30-72.4c0-28.6,10.2-52.9,30.7-73c20.5-20.1,45.2-30.1,74.4-30.1
		c17.3,0,33.1,2.6,47.4,7.9C2004.8,103.3,2019.5,113.1,2034.4,127.5z"/>
</g>
</svg>
